<?xml version="1.0" standalone="no"?>
<!DOCTYPE svg PUBLIC "-//W3C//DTD SVG 20010904//EN"
 "http://www.w3.org/TR/2001/REC-SVG-20010904/DTD/svg10.dtd">
<svg version="1.0" xmlns="http://www.w3.org/2000/svg"
 width="229.000000pt" height="229.000000pt" viewBox="0 0 229.000000 229.000000"
 preserveAspectRatio="xMidYMid meet">
<metadata>
Created by potrace 1.14, written by Peter Selinger 2001-2017
</metadata>
<g transform="translate(0.000000,229.000000) scale(0.100000,-0.100000)"
fill="#000000" stroke="none">
<path d="M770 2285 c-8 -2 -49 -9 -90 -15 -41 -7 -84 -14 -95 -16 -61 -11
-227 -73 -288 -108 -79 -45 -76 -36 -62 -156 3 -30 8 -77 10 -105 3 -27 7 -70
9 -95 12 -122 18 -188 21 -220 2 -19 6 -60 9 -90 4 -30 8 -75 11 -100 2 -25 7
-74 10 -110 4 -36 8 -85 10 -110 2 -25 4 -45 5 -45 1 0 3 -17 6 -38 2 -21 9
-57 16 -80 6 -23 12 -45 14 -49 1 -5 3 -10 4 -13 1 -3 4 -9 5 -15 1 -5 3 -11
5 -12 1 -2 3 -11 5 -21 5 -28 64 -128 104 -177 40 -50 112 -120 123 -120 3 0
13 -6 20 -13 18 -18 113 -77 123 -77 5 0 16 -6 24 -14 9 -7 91 -53 183 -101
l168 -87 127 65 c139 70 319 171 344 193 8 8 19 14 22 14 17 0 131 108 170
160 29 40 86 145 91 169 2 9 8 28 14 42 10 25 23 80 28 124 1 11 3 20 4 20 1
0 3 16 5 35 3 49 15 176 21 230 3 25 7 65 9 90 1 25 4 45 5 45 1 0 3 20 5 45
2 25 6 70 9 100 21 200 34 341 40 428 l4 53 -87 43 c-80 40 -214 89 -279 101
-15 3 -38 7 -52 10 -14 3 -41 8 -60 12 -34 6 -741 13 -770 8z"/>
<path d="M647 214 c-3 -3 -3 -12 0 -20 4 -11 -13 -14 -93 -14 -89 0 -124 -7
-61 -12 14 -1 23 -6 21 -10 -3 -5 -9 -6 -14 -3 -4 3 -13 -2 -21 -11 -16 -19 4
-42 41 -46 18 -2 25 2 25 16 0 11 6 21 14 24 9 3 11 -2 6 -17 -6 -19 -4 -21
19 -15 18 4 26 2 26 -6 0 -9 6 -8 19 4 17 15 19 15 25 1 9 -25 25 -8 21 23 -2
15 1 32 6 38 6 8 4 14 -7 18 -9 4 -14 13 -10 21 5 15 -5 21 -17 9z m-34 -65
c6 -21 -23 -35 -35 -17 -4 7 -8 16 -8 20 0 4 -9 5 -20 3 -12 -2 -18 0 -15 6
11 17 73 7 78 -12z m45 -2 c2 -10 -3 -17 -12 -17 -10 0 -16 9 -16 21 0 24 23
21 28 -4z m-138 -15 c0 -14 -11 -21 -26 -15 -8 3 -11 9 -8 14 7 11 34 12 34 1z"/>
<path d="M860 206 c-5 -7 -7 -16 -3 -19 3 -4 -15 -7 -41 -7 -47 0 -48 0 -41
-27 8 -33 24 -55 35 -48 5 3 11 1 15 -5 12 -19 23 -10 20 19 -1 16 1 35 6 43
9 14 10 11 14 -37 4 -49 5 -51 14 -37 4 8 7 28 6 46 -3 27 0 32 21 34 15 1 24
-4 24 -13 0 -8 -7 -15 -15 -15 -19 0 -19 -11 -1 -36 8 -10 18 -16 22 -11 4 4
2 7 -5 7 -8 0 -7 9 4 30 9 17 12 30 8 30 -5 0 -1 5 7 10 13 8 13 10 -1 10 -9
0 -22 6 -28 14 -17 20 -49 26 -61 12z m55 -16 c4 -6 -5 -10 -19 -10 -14 0 -26
5 -26 10 0 6 9 10 19 10 11 0 23 -4 26 -10z m-85 -34 c0 -19 -17 -39 -28 -32
-8 4 -10 34 -3 42 6 6 31 -2 31 -10z"/>
<path d="M339 184 c-6 -52 -3 -94 7 -94 7 0 10 16 8 46 -3 42 -12 72 -15 48z"/>
<path d="M399 188 c-6 -12 -5 -98 1 -98 4 0 8 22 8 50 1 42 -3 59 -9 48z"/>
<path d="M1889 182 c-4 -53 -1 -86 8 -89 10 -4 10 83 -1 94 -3 3 -6 1 -7 -5z"/>
<path d="M966 164 c-3 -7 0 -17 6 -20 8 -5 5 -10 -8 -16 -13 -6 -8 -7 16 -3
31 4 33 3 18 -9 -10 -7 -18 -16 -18 -19 0 -10 44 -4 51 7 4 4 15 4 25 -2 13
-7 21 -6 32 4 14 15 37 9 27 -6 -3 -5 -1 -11 5 -15 6 -4 10 6 11 22 0 15 2 38
5 51 4 22 2 23 -80 21 -61 -1 -86 -5 -90 -15z m54 -12 c0 -11 -3 -12 -13 -3
-8 6 -17 8 -20 4 -4 -3 -7 -1 -7 5 0 6 9 10 20 9 11 -1 20 -8 20 -15z m50 7
c0 -4 -3 -14 -6 -23 -8 -22 -33 -20 -29 2 2 9 4 20 4 23 1 9 31 7 31 -2z m47
-14 c0 -8 -6 -15 -12 -15 -17 0 -24 10 -18 25 6 17 30 9 30 -10z"/>
<path d="M1244 168 c-5 -7 -2 -9 8 -5 21 8 30 -3 17 -20 -9 -10 -8 -13 5 -13
18 0 21 -15 5 -26 -6 -3 -15 -1 -19 6 -5 8 -10 8 -14 2 -6 -9 14 -22 35 -22 5
0 14 10 19 23 l9 22 0 -22 c1 -41 21 -24 21 17 0 39 1 39 35 38 43 -2 47 -18
5 -18 -35 0 -41 -23 -10 -40 17 -9 20 -8 20 12 1 21 2 22 14 6 20 -26 28 -22
22 12 -5 35 -3 36 24 13 23 -20 27 -38 5 -29 -9 3 -15 0 -15 -8 0 -8 9 -16 20
-19 11 -3 18 -1 15 3 -3 5 0 10 6 12 6 2 12 16 12 31 1 15 5 27 10 27 6 0 10
-21 10 -62 0 -10 3 -18 7 -18 10 0 20 37 12 45 -11 11 -10 36 1 32 7 -2 12
-20 12 -40 0 -19 4 -39 8 -43 7 -7 8 -3 11 51 1 22 6 30 20 30 11 0 21 -6 24
-12 2 -7 -3 -13 -12 -13 -18 0 -22 -25 -6 -35 6 -3 10 -1 10 4 0 17 31 13 52
-6 18 -16 19 -16 14 10 -2 15 0 27 5 27 5 0 8 5 7 12 -2 8 10 13 30 13 17 1
32 -2 32 -7 0 -4 -11 -8 -24 -8 -28 0 -43 -17 -29 -31 12 -12 45 0 36 14 -3 6
-1 7 5 3 7 -4 12 -16 12 -26 0 -10 4 -21 9 -24 5 -4 8 9 7 26 -1 18 2 41 6 50
8 17 -6 18 -228 17 -176 0 -234 -3 -225 -12 13 -13 14 -27 2 -27 -5 0 -13 9
-16 20 -7 22 -30 27 -41 8z m230 -14 c4 -10 1 -14 -6 -12 -15 5 -23 28 -10 28
5 0 13 -7 16 -16z m163 8 c7 -4 9 -13 4 -21 -10 -16 -31 -6 -31 15 0 16 9 18
27 6z m-272 -32 c3 -5 1 -10 -4 -10 -6 0 -11 5 -11 10 0 6 2 10 4 10 3 0 8 -4
11 -10z"/>
<path d="M1832 142 c0 -21 3 -44 9 -52 6 -10 9 2 9 38 0 28 -4 52 -9 52 -5 0
-9 -17 -9 -38z"/>
<path d="M1150 96 c0 -9 5 -16 10 -16 6 0 10 4 10 9 0 6 -4 13 -10 16 -5 3
-10 -1 -10 -9z"/>
<path d="M696 85 c-3 -8 -1 -15 3 -15 5 0 11 7 15 15 3 8 1 15 -3 15 -5 0 -11
-7 -15 -15z"/>
<path d="M1392 93 c-6 -2 -10 -9 -7 -13 3 -5 12 -7 20 -3 8 3 15 0 15 -6 0
-10 -14 -15 -33 -12 -5 1 -6 -3 -2 -9 8 -13 32 -13 40 0 7 12 -3 50 -13 49 -4
0 -13 -3 -20 -6z"/>
</g>
</svg>
